PathFileType	4	(X/Y/Z)	walk-thru1-4-TP.trc
DataRate	CameraRate	NumFrames	NumMarkers	Units	OrigDataRate	OrigDataStartFrame	OrigNumFrames
120.00	120.00	       4	60	mm	120.00	255	       508
Frame#	Time	Top.Head			Front.Head			Rear.Head			Jaw			C7			R.Clavicle			L.Clavicle			R.Shoulder			L.Shoulder			R.Scapula			L.Scapula			R.Scap.Inf			R.Biceps.Lateral			R.Elbow			R.Elbow.Medial			R.Forearm			R.Ulna			R.Radius			R.Wrist			R.Thumb.M1			R.Thumb.M2			R.Thumb.M3			R.Finger3.M1			R.Finger3.M2			R.Finger3.M3			L.Biceps.Lateral			L.Elbow			L.Elbow.Medial			L.Forearm			L.Ulna			L.Radius			L.Wrist			L.Thumb.M1			L.Thumb.M2			L.Thumb.M3			L.Finger3.M1			L.Finger3.M2			L.Finger3.M3			V.Sacral			R.ASIS			L.ASIS			R.Thigh			R.Thigh.Front			R.Knee			R.Knee.Medial			R.Shank			R.Ankle			R.Ankle.Medial			R.Heel			R.Toe			R.MedFoot			L.Thigh			L.Knee			L.Knee.Medial			L.Shank			L.Ankle			L.Ankle.Medial			L.Heel			L.Toe			L.MedFoot			V_mid_ASIS			V_R_Knee_JC			V_L_Knee_JC			V_R_Elbow_JC			V_L_Elbow_JC			V_R_Ankle_JC			V_L_Ankle_JC			V_R_Wrist_JC			V_L_Wrist_JC			V_R_ScaTrpz_1stMC_JC			V_R_1stMC_1stPP_JC			V_R_1stPP_1stDP_JC			V_R_LunCap_3rdMC_JC			V_R_3rdMC_3rdPP_JC			V_R_3rdPP_3rdMP_JC			V_R_3rdMP_3rdDP_JC			V_L_ScaTrpz_1stMC_JC			V_L_1stMC_1stPP_JC			V_L_1stPP_1stDP_JC			V_L_LunCap_3rdMC_JC			V_L_3rdMC_3rdPP_JC			V_L_3rdPP_3rdMP_JC			V_L_3rdMP_3rdPP_JC			V_ROOT_JC			V_R_Hip_JC			V_L_Hip_JC			V_R_GlenHum_JC			V_L_GlenHum_JC			V_ForeHead_Ctr			V_Vertex			V_Sagit_Lambdoid_Suture			V_R_FrontoTemp			V_L_FrontoTemporal			V_R_ParietalOccip			V_L_ParietalOcciptal			V_R_Temporal			V_L_Temporal			V_mid_FrontRearHead			V_mid_RLGlenHumCtrs			V_C7_vert			V_C1_vert			V_Mid_Hip			
		X1	Y1	Z1	X2	Y2	Z2	X3	Y3	Z3	X4	Y4	Z4	X5	Y5	Z5	X6	Y6	Z6	X7	Y7	Z7	X8	Y8	Z8	X9	Y9	Z9	X10	Y10	Z10	X11	Y11	Z11	X12	Y12	Z12	X13	Y13	Z13	X14	Y14	Z14	X15	Y15	Z15	X16	Y16	Z16	X17	Y17	Z17	X18	Y18	Z18	X19	Y19	Z19	X20	Y20	Z20	X21	Y21	Z21	X22	Y22	Z22	X23	Y23	Z23	X24	Y24	Z24	X25	Y25	Z25	X26	Y26	Z26	X27	Y27	Z27	X28	Y28	Z28	X29	Y29	Z29	X30	Y30	Z30	X31	Y31	Z31	X32	Y32	Z32	X33	Y33	Z33	X34	Y34	Z34	X35	Y35	Z35	X36	Y36	Z36	X37	Y37	Z37	X38	Y38	Z38	X39	Y39	Z39	X40	Y40	Z40	X41	Y41	Z41	X42	Y42	Z42	X43	Y43	Z43	X44	Y44	Z44	X45	Y45	Z45	X46	Y46	Z46	X47	Y47	Z47	X48	Y48	Z48	X49	Y49	Z49	X50	Y50	Z50	X51	Y51	Z51	X52	Y52	Z52	X53	Y53	Z53	X54	Y54	Z54	X55	Y55	Z55	X56	Y56	Z56	X57	Y57	Z57	X58	Y58	Z58	X59	Y59	Z59	X60	Y60	Z60	

255	2.117	265.44336	89.11622	1765.65381	361.50983	68.73488	1643.18909	132.06145	98.57213	1693.96350	269.11630	75.00390	1470.39624	37.63650	82.74114	1570.62842	136.02718	-33.35408	1492.38245	142.02243	211.69048	1478.70947	86.69718	-140.36989	1487.02527	89.24268	314.55951	1477.26904	-28.53864	-14.08213	1482.57129	-32.61243	178.34840	1477.50439	-58.41146	-18.85423	1393.04712	58.25554	-178.98466	1348.68860	5.13495	-220.06625	1165.10547	3.25032	-122.65502	1150.60791	107.76168	-208.71614	1108.34302	64.28383	-229.67603	969.27075	175.13762	-207.62024	948.67938	186.52927	-256.98718	924.42548	198.47224	-204.89203	903.56061	198.58797	-180.00838	854.51215	193.41644	-182.36232	803.09625	209.07957	-275.93628	844.94220	170.71614	-243.27753	779.61615	142.00380	-196.82562	814.72803	16.51354	335.49237	1339.27222	-65.73418	335.79211	1176.29187	-71.56084	241.74556	1157.40381	7.43344	340.01120	1083.53052	-69.65834	355.64627	988.36682	18.90778	340.32574	920.57733	-9.46574	378.26801	888.40289	35.33490	339.67810	860.95172	47.26331	310.73349	815.25769	47.16145	309.11600	765.53711	-0.84015	384.17786	785.78186	-5.36043	348.72943	730.99707	-8.05537	289.69415	735.10181	-88.74520	85.68495	1120.98889	99.76931	-110.59332	1055.41162	107.05466	241.14203	1064.09070	45.81515	-94.00029	674.39294	102.03048	-2.90145	565.38025	48.68271	-63.38407	512.42200	35.59351	48.26273	513.03961	16.82681	-15.42926	296.73016	-114.61024	-43.08686	84.99924	-96.75525	60.73922	106.67365	-180.08980	7.42354	52.54441	54.92690	-9.79033	41.07579	-6.55554	29.75973	78.19804	144.52399	255.78020	680.89941	190.09666	222.58789	549.40631	185.15164	110.72293	528.44971	241.50861	182.28700	351.67123	201.07376	189.01360	87.86919	249.91554	103.07726	130.43301	176.63438	115.24036	50.39011	383.31290	192.07498	89.48083	322.99738	148.47185	116.23462																																																																																																																															
256	2.125	269.18185	90.89841	1764.78857	365.95328	69.42066	1642.46362	137.76949	100.20155	1694.21082	274.40378	76.29780	1469.06885	42.36881	85.78671	1568.58142	140.88684	-31.19173	1491.93347	147.74529	212.59058	1477.21191	92.08549	-138.43877	1486.41638	95.70181	315.86285	1476.05017	-22.77741	-12.41952	1482.22522	-28.25990	179.66518	1476.46606	-52.81835	-18.09770	1392.14441	63.03297	-178.15849	1348.57471	10.71223	-220.53107	1165.27795	3.25032	-122.65502	1150.60791	111.70084	-208.74814	1108.78662	68.14532	-229.18997	969.55798	180.21545	-208.76826	948.89240	191.13460	-255.61761	923.70062	202.41823	-202.82481	904.04938	201.95819	-176.67429	856.00946	195.84227	-178.50790	804.06171	212.89490	-272.65350	842.84186	174.45067	-236.63109	779.70374	145.44839	-193.42567	814.53784	22.77901	336.75186	1337.47510	-59.49636	337.87537	1174.60022	-66.56237	242.31514	1155.08374	13.76174	340.84567	1082.32471	-62.61795	355.91312	987.10071	24.91346	341.94482	918.58319	-2.06145	380.55502	886.92853	42.32156	340.01633	859.70941	54.20344	312.53638	815.12006	55.44256	308.61414	764.47668	7.19011	385.04691	783.81403	1.77488	349.92801	729.59552	-1.55495	291.12961	733.96368	-82.94363	85.97495	1119.42822	105.19066	-110.46964	1054.05286	112.13412	241.16457	1062.71460	49.51738	-93.48624	673.82220	105.72985	-3.18092	563.99078	51.37607	-63.74403	511.46396	38.66800	46.70396	511.77182	18.10819	-15.62221	295.45163	-114.21030	-43.23426	85.35789	-96.46839	61.10544	107.88341	-179.83162	6.95831	52.80502	54.92690	-9.79033	41.07579	-6.44849	30.07575	78.00684	150.94579	255.93852	679.70703	195.92928	222.17007	548.74945	192.11682	110.81474	527.67474	247.22475	181.08597	350.57559	207.51973	187.65146	86.69891	255.86295	102.09641	129.88763	183.41125	114.40568	49.06770	389.93201	191.90656	89.19003	329.11664	147.30898	115.42912																																																																																																																															
257	2.133	274.93942	93.18044	1764.20532	371.61972	71.97082	1641.72339	141.74791	102.48579	1692.54102	280.01199	78.10924	1468.98059	46.74451	88.98236	1567.96521	146.39415	-29.93930	1491.39209	152.71407	213.43243	1475.94409	96.47393	-136.83171	1485.79651	100.78174	317.11505	1475.09705	-18.74482	-11.31372	1481.03784	-22.73859	181.69118	1473.90271	-48.41497	-15.84188	1390.89539	67.62646	-177.19327	1348.06799	14.95508	-220.13805	1165.08057	8.30834	-122.66201	1149.41101	115.94960	-210.43599	1108.74414	72.20229	-228.90337	968.02997	184.85196	-209.30997	948.97296	194.96394	-255.12991	923.60864	205.95682	-201.82965	905.46149	204.72450	-173.82646	858.52722	200.17516	-172.72314	807.26898	216.78563	-268.62827	841.14258	177.76880	-230.87877	781.04529	150.24316	-184.17633	817.86847	28.75235	338.20941	1335.58350	-53.69782	339.78027	1173.24731	-62.01479	243.81430	1153.93762	19.69392	342.07050	1081.30493	-55.86451	357.68036	984.90106	31.99380	343.31619	916.97882	3.84805	381.84454	886.13629	49.08424	341.57449	858.71722	61.69743	312.78558	813.48499	61.73594	312.74316	763.75385	14.31073	386.89502	782.70087	9.32060	350.85696	726.59851	6.31273	292.23148	732.34393	-78.11831	87.66576	1118.59509	112.06676	-110.23079	1053.99158	117.77888	242.73378	1061.53198	53.99656	-93.12450	672.72662	109.40711	-3.31014	563.00433	55.24092	-62.73842	510.46085	42.11643	48.06223	511.30365	19.77516	-15.48415	294.77802	-114.21030	-43.23426	85.35789	-96.03737	60.85946	107.98032	-179.83867	7.63868	52.69713	54.92690	-9.79033	41.07579	-6.52705	30.44115	78.58923	158.21036	254.47427	678.77594	202.86731	222.18646	548.48645	198.26791	111.02951	527.70551	254.27135	179.47852	349.41364	213.71648	186.76578	85.70811	261.40445	101.43120	128.23769	188.71817	112.97797	47.90528	395.80087	191.12444	88.32858	334.36633	146.00545	114.21744																																																																																																																															
258	2.142	279.49130	94.38013	1763.53491	375.71231	74.17094	1641.12927	146.54614	103.35134	1692.33887	284.51321	79.79414	1468.14453	51.44245	90.15056	1566.40808	150.43594	-28.03648	1490.41382	157.94769	215.52110	1474.42603	102.07131	-135.89772	1486.39697	105.75030	319.44452	1473.61450	-13.65474	-8.66273	1480.86169	-16.99009	184.88486	1473.67725	-43.78506	-14.92447	1390.29419	71.37144	-176.40695	1347.75366	18.93130	-219.64752	1164.98376	18.37062	-120.11453	1149.28149	119.22961	-210.78806	1109.09790	76.53514	-228.25377	968.23480	190.31932	-209.52277	949.74841	199.30672	-255.49666	922.81305	209.95407	-200.51007	907.14124	208.85510	-171.04984	860.71722	203.64752	-169.04491	808.68097	221.14502	-264.60022	840.10138	181.17409	-224.60008	781.36530	149.31012	-181.37079	817.49115	34.83835	339.25708	1333.63037	-47.53150	341.76364	1171.26343	-55.75254	245.23061	1150.41064	26.76762	342.96283	1079.62451	-49.54531	360.21622	983.11841	39.40239	345.41922	915.65070	12.05730	383.14694	883.72583	55.29171	342.90015	858.08453	69.31084	313.84546	812.40521	69.33276	312.89133	761.83289	21.99976	389.41293	781.30176	15.64272	352.45566	724.98047	13.52228	293.64612	729.49689	-73.09715	88.28948	1116.94446	117.97827	-110.31702	1052.79797	123.68285	242.89140	1059.90845	57.33664	-93.03490	672.22968	112.84859	-3.19202	562.02814	58.55294	-62.23257	509.47437	45.92442	48.09222	510.18912	21.30735	-15.18003	293.88885	-113.96107	-43.10530	85.61791	-95.34276	60.26774	107.95140	-179.74422	7.65291	52.76471	55.00653	-9.64682	40.88694	-6.47799	30.31880	78.45754	165.18898	255.02336	678.81982	209.49727	221.75594	547.66437	204.59384	109.75217	527.88947	259.61572	178.96585	347.90262	217.39310	186.25978	84.99603	264.96036	101.01179	126.95304	191.79961	112.27714	47.18727	399.78641	189.96051	86.21362	338.35791	144.39584	112.74979																																																																																																																															
